<svg width="16" height="16" viewBox="0 0 16 16" fill="none" xmlns="http://www.w3.org/2000/svg">
<path d="M12.6667 5.33333C13.0203 5.33333 13.3595 5.47381 13.6095 5.72386C13.8596 5.97391 14 6.31305 14 6.66667V11.1733C14.4067 11.54 14.6667 12.0733 14.6667 12.6667C14.6667 13.7733 13.7734 14.6667 12.6667 14.6667C11.56 14.6667 10.6667 13.7733 10.6667 12.6667C10.6667 12.0733 10.9267 11.54 11.3334 11.1733V6.66667C11.3334 5.93333 11.9334 5.33333 12.6667 5.33333ZM12.6667 6C12.3 6 12 6.3 12 6.66667V7.33333H13.3334V6.66667C13.3334 6.3 13.0334 6 12.6667 6ZM3.33337 13.3333V8H1.33337L8.00004 2L10.9334 4.64C10.6396 4.88949 10.4039 5.20011 10.2427 5.55017C10.0815 5.90023 9.99867 6.28127 10 6.66667V10.6667C9.58004 11.22 9.33337 11.9133 9.33337 12.6667L9.40004 13.3333H3.33337Z" fill="#9BBAC2"/>
</svg>
