<svg width="16" height="16" viewBox="0 0 16 16" fill="none" xmlns="http://www.w3.org/2000/svg">
<path d="M8.00782 6.10314C7.54063 6.10314 7.10313 6.28439 6.77188 6.61564C6.4422 6.94689 6.25938 7.38439 6.25938 7.85157C6.25938 8.31876 6.4422 8.75626 6.77188 9.08751C7.10313 9.4172 7.54063 9.60001 8.00782 9.60001C8.47501 9.60001 8.91251 9.4172 9.24376 9.08751C9.57345 8.75626 9.75626 8.31876 9.75626 7.85157C9.75626 7.38439 9.57345 6.94689 9.24376 6.61564C9.08197 6.4526 8.88939 6.32334 8.67722 6.23536C8.46505 6.14738 8.23751 6.10243 8.00782 6.10314ZM14.45 9.78282L13.4281 8.90939C13.4766 8.61251 13.5016 8.30939 13.5016 8.00782C13.5016 7.70626 13.4766 7.40157 13.4281 7.10626L14.45 6.23282C14.5272 6.16674 14.5825 6.07872 14.6084 5.98048C14.6344 5.88223 14.6298 5.77841 14.5953 5.68283L14.5813 5.6422C14.3 4.85578 13.8786 4.12682 13.3375 3.49064L13.3094 3.45782C13.2437 3.38056 13.1561 3.32502 13.0582 3.29852C12.9603 3.27203 12.8567 3.27581 12.7609 3.30939L11.4922 3.76095C11.0234 3.37657 10.5016 3.07345 9.93595 2.86251L9.69063 1.53595C9.67213 1.43602 9.62365 1.34408 9.55164 1.27235C9.47964 1.20063 9.38751 1.15251 9.28751 1.13439L9.24532 1.12657C8.43282 0.9797 7.57657 0.9797 6.76407 1.12657L6.72188 1.13439C6.62188 1.15251 6.52975 1.20063 6.45775 1.27235C6.38574 1.34408 6.33727 1.43602 6.31876 1.53595L6.07188 2.86876C5.51161 3.08138 4.98969 3.38377 4.52657 3.76407L3.24845 3.30939C3.15277 3.27555 3.04906 3.27162 2.95109 3.29814C2.85313 3.32465 2.76556 3.38035 2.70001 3.45782L2.67188 3.49064C2.13171 4.1275 1.71043 4.85627 1.42813 5.6422L1.41407 5.68283C1.34376 5.87814 1.40157 6.09689 1.55938 6.23282L2.59376 7.11564C2.54532 7.40939 2.52188 7.70939 2.52188 8.00626C2.52188 8.30626 2.54532 8.60626 2.59376 8.89689L1.56251 9.7797C1.48531 9.84578 1.43006 9.9338 1.40411 10.032C1.37815 10.1303 1.38272 10.2341 1.4172 10.3297L1.43126 10.3703C1.71407 11.1563 2.13126 11.8828 2.67501 12.5219L2.70313 12.5547C2.76884 12.632 2.85642 12.6875 2.95432 12.714C3.05223 12.7405 3.15586 12.7367 3.25157 12.7031L4.5297 12.2485C4.99532 12.6313 5.51407 12.9344 6.07501 13.1438L6.32188 14.4766C6.34039 14.5765 6.38887 14.6684 6.46087 14.7402C6.53288 14.8119 6.625 14.86 6.72501 14.8781L6.7672 14.886C7.58769 15.0336 8.42795 15.0336 9.24845 14.886L9.29063 14.8781C9.39064 14.86 9.48276 14.8119 9.55477 14.7402C9.62677 14.6684 9.67525 14.5765 9.69376 14.4766L9.93907 13.15C10.5047 12.9375 11.0266 12.6359 11.4953 12.2516L12.7641 12.7031C12.8598 12.737 12.9635 12.7409 13.0614 12.7144C13.1594 12.6879 13.247 12.6322 13.3125 12.5547L13.3406 12.5219C13.8844 11.8797 14.3016 11.1563 14.5844 10.3703L14.5984 10.3297C14.6656 10.1359 14.6078 9.91876 14.45 9.78282ZM8.00782 10.5984C6.49063 10.5984 5.26095 9.36876 5.26095 7.85157C5.26095 6.33439 6.49063 5.1047 8.00782 5.1047C9.52501 5.1047 10.7547 6.33439 10.7547 7.85157C10.7547 9.36876 9.52501 10.5984 8.00782 10.5984Z" fill="#C1D0CB"/>
</svg>
