<svg width="16" height="16" viewBox="0 0 16 16" fill="none" xmlns="http://www.w3.org/2000/svg">
<path d="M8.00004 1.33331C11.682 1.33331 14.6667 4.31798 14.6667 7.99998C14.6667 11.682 11.682 14.6666 8.00004 14.6666C4.31804 14.6666 1.33337 11.682 1.33337 7.99998C1.33337 4.31798 4.31804 1.33331 8.00004 1.33331ZM11.064 4.93598C10.998 4.86995 10.9108 4.82929 10.8178 4.82112C10.7248 4.81295 10.6319 4.8378 10.5554 4.89131C8.62871 6.24331 7.54204 7.04465 7.29271 7.29265C7.10511 7.48024 6.99972 7.73468 6.99972 7.99998C6.99972 8.26528 7.10511 8.51972 7.29271 8.70731C7.4803 8.89491 7.73474 9.0003 8.00004 9.0003C8.26534 9.0003 8.51978 8.89491 8.70737 8.70731C8.85337 8.56065 9.65271 7.47331 11.106 5.44265C11.1601 5.36688 11.1856 5.27439 11.1779 5.18161C11.1702 5.08884 11.1299 5.0018 11.064 4.93598ZM11.6667 7.33331C11.4899 7.33331 11.3203 7.40355 11.1953 7.52857C11.0703 7.6536 11 7.82317 11 7.99998C11 8.17679 11.0703 8.34636 11.1953 8.47138C11.3203 8.59641 11.4899 8.66665 11.6667 8.66665C11.8435 8.66665 12.0131 8.59641 12.1381 8.47138C12.2631 8.34636 12.3334 8.17679 12.3334 7.99998C12.3334 7.82317 12.2631 7.6536 12.1381 7.52857C12.0131 7.40355 11.8435 7.33331 11.6667 7.33331ZM4.33337 7.33331C4.15656 7.33331 3.98699 7.40355 3.86197 7.52857C3.73695 7.6536 3.66671 7.82317 3.66671 7.99998C3.66671 8.17679 3.73695 8.34636 3.86197 8.47138C3.98699 8.59641 4.15656 8.66665 4.33337 8.66665C4.51018 8.66665 4.67975 8.59641 4.80478 8.47138C4.9298 8.34636 5.00004 8.17679 5.00004 7.99998C5.00004 7.82317 4.9298 7.6536 4.80478 7.52857C4.67975 7.40355 4.51018 7.33331 4.33337 7.33331ZM5.87871 4.93598C5.81721 4.87231 5.74365 4.82152 5.66231 4.78658C5.58097 4.75164 5.49349 4.73325 5.40497 4.73248C5.31645 4.73171 5.22867 4.74858 5.14674 4.7821C5.06481 4.81562 4.99037 4.86512 4.92778 4.92772C4.86518 4.99031 4.81568 5.06475 4.78216 5.14668C4.74864 5.22861 4.73177 5.31639 4.73254 5.40491C4.73331 5.49343 4.7517 5.58091 4.78664 5.66225C4.82158 5.74359 4.87237 5.81715 4.93604 5.87865C5.06178 6.00008 5.23018 6.06728 5.40497 6.06576C5.57977 6.06424 5.74698 5.99413 5.87059 5.87052C5.99419 5.74692 6.0643 5.57971 6.06582 5.40491C6.06734 5.23012 6.00015 5.06171 5.87871 4.93598ZM8.00004 3.66665C7.82323 3.66665 7.65366 3.73688 7.52864 3.86191C7.40361 3.98693 7.33337 4.1565 7.33337 4.33331C7.33337 4.51012 7.40361 4.67969 7.52864 4.80472C7.65366 4.92974 7.82323 4.99998 8.00004 4.99998C8.17685 4.99998 8.34642 4.92974 8.47144 4.80472C8.59647 4.67969 8.66671 4.51012 8.66671 4.33331C8.66671 4.1565 8.59647 3.98693 8.47144 3.86191C8.34642 3.73688 8.17685 3.66665 8.00004 3.66665Z" fill="#9BBAC2"/>
</svg>
