<svg width="26" height="30" viewBox="0 0 26 30" fill="none" xmlns="http://www.w3.org/2000/svg">
<path d="M25.5824 9.1641C25.5824 8.75681 25.2515 8.42588 24.8442 8.42588C22.8586 8.42588 21.0258 7.66221 19.6257 6.26214C18.2257 4.86207 17.462 3.02925 17.462 1.04369C17.462 0.636396 17.1311 0.30547 16.7238 0.30547C16.3165 0.30547 15.9856 0.636396 15.9856 1.04369C15.9856 3.38563 16.902 5.62574 18.582 7.30583C20.2621 8.98591 22.5022 9.90232 24.8442 9.90232C25.2515 9.90232 25.5824 9.5714 25.5824 9.1641Z" fill="white"/>
<path d="M19.3203 0.30547C18.913 0.30547 18.582 0.636396 18.582 1.04369C18.5566 2.69832 19.2439 4.30204 20.4149 5.47301C21.6113 6.66943 23.1641 7.30583 24.8442 7.30583C25.2515 7.30583 25.5824 6.9749 25.5824 6.56761C25.5824 6.16031 25.2515 5.82939 24.8442 5.82939C23.5714 5.82939 22.3495 5.32027 21.4331 4.40386C20.5421 3.51291 20.0076 2.26557 20.033 1.01823C20.033 0.661852 19.7021 0.330926 19.3203 0.30547Z" fill="white"/>
<path d="M24.8442 4.76024C25.2515 4.76024 25.5824 4.42932 25.5824 4.02202C25.5824 3.61473 25.2515 3.2838 24.8442 3.2838C23.6223 3.2838 22.6041 2.26557 22.6041 1.04369C22.6041 0.636395 22.2731 0.30547 21.8658 0.30547C21.4586 0.30547 21.1276 0.636396 21.1276 1.04369C21.1276 2.01101 21.5095 2.95288 22.2222 3.66564C22.935 4.37841 23.8514 4.73479 24.8442 4.76024Z" fill="white"/>
<path d="M5.0789 28.3757C4.84126 28.9945 5.15811 29.6906 5.79183 29.9227C5.95026 29.9613 6.06908 30 6.22751 30C6.7424 30 7.21768 29.6906 7.37611 29.2265L9 24.895L7.13847 23L5.0789 28.3757Z" fill="white"/>
<path d="M15.892 14.0373L13.2365 13.6671C13.089 13.6671 12.9415 13.5746 12.8431 13.4358C10.581 10.3358 10.1385 10.197 9.45001 10.1507L7.28629 10.0119C6.89289 9.96562 6.45031 9.96562 3.20474 11.7701C2.51629 12.1403 1.97536 12.6955 1.58196 13.3895L0.155875 15.888C-0.188352 16.4895 0.0575237 17.2298 0.696803 17.5537C0.893504 17.6462 1.0902 17.6925 1.33608 17.6925C1.82783 17.6925 2.27041 17.4612 2.51629 17.0447L3.94237 14.5462C4.0899 14.2686 4.2866 14.0835 4.58165 13.9447C4.68 13.8985 4.77835 13.8522 4.8767 13.8059L3.94237 17.6925C3.74567 18.4791 3.99155 19.2656 4.58165 19.8209L8.81073 23.8463C8.8599 23.8925 8.8599 23.9388 8.90908 23.9851L10.7286 29.0284C10.9253 29.6299 11.5154 30 12.1546 30C12.3022 30 12.4989 29.9537 12.6464 29.9075C13.4332 29.6299 13.8758 28.8433 13.5807 28.103L11.7612 23.0597C11.6137 22.597 11.3187 22.1806 10.9744 21.8567L8.61403 19.5433L10.3352 14.4074C10.4335 14.5462 10.5319 14.685 10.6302 14.8238C11.122 15.5179 11.9088 15.9806 12.7939 16.1194L15.4494 16.4895C16.187 16.5821 16.8263 16.1194 16.9738 15.4253C17.1214 14.7776 16.6296 14.1298 15.892 14.0373Z" fill="white"/>
<path d="M11.4075 6.4619C11.5784 4.89175 10.444 3.48035 8.87389 3.30946C7.30374 3.13856 5.89234 4.27287 5.72144 5.84303C5.55054 7.41318 6.68486 8.82458 8.25501 8.99547C9.82516 9.16637 11.2366 8.03206 11.4075 6.4619Z" fill="white"/>
</svg>
